<svg xmlns="http://www.w3.org/2000/svg" viewBox="0 0 238.1 80.2"><defs><style>.cls-1{fill:#fff;}.cls-2{fill:#d0af21;}</style></defs><g id="Layer_2" data-name="Layer 2"><g id="Layer_1-2" data-name="Layer 1"><path class="cls-1" d="M20.56,70.42C8.62,67.37,0,58.67,0,48.42A16.8,16.8,0,0,1,.17,46H2.24a10.31,10.31,0,0,1,9.3,5.83Z"/><path class="cls-1" d="M39.44,70.42c12-3,20.57-11.75,20.57-22A18.3,18.3,0,0,0,59.84,46H57.76a10.33,10.33,0,0,0-9.3,5.83Z"/><circle class="cls-2" cx="30.01" cy="18.82" r="5.11"/><path class="cls-2" d="M40.89,50.49c-1.66-2.1-4.69-3.28-7.35-4.1L30,53.13l-4.41-8.8C21,43.24,15.48,41.91,10.68,39.26l14.7,30.35c2.54,5.26,6.71,5.26,9.25,0l6.75-13.94A4.91,4.91,0,0,0,40.89,50.49Z"/><path class="cls-1" d="M45.09,48.29a14.87,14.87,0,0,1,12.67-7h.7c-8.12-15.76-41.83-8.13-42.33-22.1A13.92,13.92,0,1,1,43.79,21a20.08,20.08,0,0,1-1.71,5.36,47.94,47.94,0,0,1,11.17,3.84c1.8-4.22,2.64-6.37,2.64-10C55.89,6.47,43.78.21,29.93,0,16.55-.19,4.1,6.73,4.1,20,4.1,43.88,37.34,36.1,45.09,48.29Z"/><path class="cls-1" d="M237.27,50.8a13.59,13.59,0,0,1-3.47,3.67,11.92,11.92,0,0,1-7.29,2.63q-9.16,0-10.34-12.67h20.41c.83,0,1.24-.46,1.24-1.38a12,12,0,0,0-4.35-9.13,16.24,16.24,0,0,0-11.35-4.15,18.86,18.86,0,0,0-11.81,3.84,1.77,1.77,0,0,0-.52,2.1,8.61,8.61,0,0,1,.67,3.33,8.71,8.71,0,0,1-6,8.28,1.78,1.78,0,0,0-1.19,1.78,15.81,15.81,0,0,0,4.83,11.28q4.83,4.6,12.45,4.6a17.11,17.11,0,0,0,13-5.81,18.48,18.48,0,0,0,4.56-8C238.05,50.64,237.78,50.52,237.27,50.8ZM217.83,33.3c.92-1.48,2-2.22,3.25-2.22s2.29.88,3,2.63a14.88,14.88,0,0,1,1,5.74c0,2.31-.47,3.46-1.39,3.46h-7.47c0-.64-.07-1.29-.07-1.93Q216.1,35.92,217.83,33.3Z"/><path class="cls-1" d="M164.13,26.24a7.68,7.68,0,0,0,7.75-7.75A7.52,7.52,0,0,0,169.63,13a7.73,7.73,0,0,0-11,0,7.48,7.48,0,0,0-2.29,5.47,7.75,7.75,0,0,0,7.75,7.75Z"/><path class="cls-1" d="M205.73,32.22a6.92,6.92,0,0,0-5-2q-5,0-10,6.51V31.08c0-1.1-.58-1.47-1.73-1.1-4.26,1.34-13.15,4.27-13.15,4.27v1.09s1-.29,1,2.08c0,2,0,18.38,0,22.82a2.48,2.48,0,1,1-5,0V31.08c0-1.2-.69-1.33-1.4-1.19L156.63,34.4v1.09s1-.29,1,2.09v4l0,13.4c0,3.29-2,7-4.88,8.34v.83h41.18v-.83a2.65,2.65,0,0,1-1.94-1.1c-.83-.88-1.24-3.56-1.24-8.4V42.25c0-2.48,1.47-4.39,2.38-4.45,1.23-.07,1.4,6.57,7.58,6.57a6.59,6.59,0,0,0,5-2.18,7.28,7.28,0,0,0,2-5.09A6.66,6.66,0,0,0,205.73,32.22Z"/><path class="cls-1" d="M149.4,33.43a12.09,12.09,0,0,0-8.79-3.52q-5.88,0-10.45,5.19V31c0-1.2-.69-1.34-1.4-1.19l-13.12,4.27v1.09s1-.14,1,1.67V72.52c0,5.83-4.74,6.68-6.09,6.85v.83h25.26v-.83a5,5,0,0,1-3.6-1.52,6.72,6.72,0,0,1-2-5.19V62.84a14,14,0,0,0,7.54,2.07q6.38,0,11.14-5.64T153.62,45Q153.62,37.58,149.4,33.43ZM138.26,59.48q-1.11,3.23-3.6,3.22c-1.85,0-3.34-1-4.5-3.11v-21q1.53-3.11,3.88-3.11,5.33,0,5.32,13Q139.36,56.26,138.26,59.48Z"/><path class="cls-1" d="M88,60.8c-6.53-2.36-11.19-12.68-12.8-18H74V62.71l1.76.34c4.09-4.68,17.58,8.39,31.52-2.59a15.14,15.14,0,0,0,5.27-14.09c-.76-4.53-3.72-7.83-7.15-10.66-7.9-6.51-20.73-9-17.56-17.52,1.89-5.08,14.49-9.3,20.95,12.17h1.05V12.81l-1.55-.3c-3.68,4.21-16.37-7.93-29.9,3.08A14.67,14.67,0,0,0,73.12,28c.43,5.54,4.24,9.7,8.58,12.79s10.43,3.95,14.58,7.7C103.23,54.78,97,64.05,88,60.8Z"/></g></g></svg>