<svg xmlns="http://www.w3.org/2000/svg" width="49.471" height="49.198" viewBox="0 0 49.471 49.198"><defs><style>.a{fill:none;stroke:#cc9e0d;stroke-miterlimit:10;stroke-width:2px;}</style></defs><g transform="translate(-225.696 -91.575)"><rect class="a" width="19.119" height="12.497" transform="translate(226.696 104.146)"/><rect class="a" width="19.119" height="12.497" transform="translate(255.048 104.146)"/><rect class="a" width="16.228" height="23.13" transform="translate(255.048 116.644)"/><rect class="a" width="16.228" height="23.13" transform="translate(229.587 116.644)"/><rect class="a" width="35.627" height="9.233" transform="translate(255.048 104.146) rotate(90)"/><path class="a" d="M242.151,98.092c1.158,1.473,4.3,6.056,4.3,6.056h-14.53a6.165,6.165,0,0,1,2.961-11.573C238.283,92.575,240.033,95.4,242.151,98.092Z" transform="translate(3.985 0)"/><path class="a" d="M238.97,98.092c-1.158,1.473-4.3,6.056-4.3,6.056H249.2a6.165,6.165,0,0,0-2.961-11.573C242.835,92.575,241.086,95.4,238.97,98.092Z" transform="translate(15.76 0)"/></g></svg>