<svg width="56" height="36" viewBox="0 0 56 36" fill="none" xmlns="http://www.w3.org/2000/svg">
<path d="M50.6002 31.7001L48.1002 29.0001L45.6002 31.7001H40.7002H30.2002V19.2001H25.2002L31.4002 5.1001H37.4002L39.6002 9.9001V5.1001H47.0002L48.3002 8.8001L49.6002 5.1001H55.3002V2.9001C55.3002 1.6001 54.2002 0.600098 53.0002 0.600098H3.00019C1.70019 0.600098 0.700195 1.7001 0.700195 2.9001V33.2001C0.700195 34.5001 1.80019 35.5001 3.00019 35.5001H53.0002C54.3002 35.5001 55.3002 34.4001 55.3002 33.2001V31.7001H50.6002Z" fill="#0071CE"/>
<path d="M51.3006 30.3003H55.3006L50.1006 24.8003L55.3006 19.3003H51.4006L48.2006 22.8003L45.0006 19.3003H41.1006L46.3006 24.8003L41.1006 30.3003H44.9006L48.1006 26.8003L51.3006 30.3003Z" fill="#0071CE"/>
<path d="M34.7998 27.8003V26.1003H40.9998V23.6003H34.7998V21.8003H41.0998V19.3003H31.7998V30.3003H41.0998V27.8003H34.7998Z" fill="#0071CE"/>
<path d="M52.3006 17.8003H55.2006V6.80029H50.7006L48.2006 13.6003L45.8006 6.80029H41.1006V17.8003H44.1006V10.1003L46.9006 17.8003H49.5006L52.3006 10.1003V17.8003Z" fill="#0071CE"/>
<path d="M36.3002 6.80029H32.5002L27.7002 17.7003H31.0002L31.9002 15.5003H36.9002L37.8002 17.7003H41.2002L36.3002 6.80029ZM32.8002 13.1003L34.3002 9.50029L35.8002 13.1003H32.8002Z" fill="#0071CE"/>
<path d="M52.5 24.5L55.3 27.5V21.5L52.5 24.5Z" fill="#0071CE"/>
</svg>
