<svg width="56" height="36" viewBox="0 0 56 36" fill="none" xmlns="http://www.w3.org/2000/svg">
<path d="M55 19.8999C55 19.8999 40.2 30.3999 13 35.0999H55V19.8999Z" fill="#EF7622"/>
<path d="M55.2002 0.5H0.700195V35.5H55.4002V0.5H55.2002ZM55.0002 0.9V35.1H1.1002C1.1002 34.7 1.1002 1.3 1.1002 0.9H55.0002Z" fill="#231F20"/>
<path d="M5.5002 11.2002H3.2002V19.1002H5.40019C6.40019 19.2002 7.5002 18.8002 8.3002 18.2002C9.2002 17.5002 9.7002 16.4002 9.7002 15.2002C9.7002 13.0002 8.00019 11.2002 5.90019 11.2002C5.80019 11.2002 5.6002 11.2002 5.5002 11.2002ZM7.3002 17.2002C6.7002 17.7002 5.9002 17.9002 5.2002 17.8002H4.8002V12.5002H5.2002C6.0002 12.4002 6.7002 12.7002 7.3002 13.1002C7.9002 13.6002 8.2002 14.3002 8.2002 15.1002C8.2002 16.0002 7.9002 16.7002 7.3002 17.2002Z" fill="#231F20"/>
<path d="M11.9004 11.2002H10.4004V19.1002H11.9004V11.2002Z" fill="#231F20"/>
<path d="M15.7004 14.2C14.8004 13.9 14.5004 13.6 14.5004 13.2C14.5004 12.8 15.0004 12.3 15.6004 12.3C16.1004 12.3 16.5004 12.5 16.8004 12.9L17.6004 11.8C17.0004 11.2 16.1004 10.9 15.3004 10.9C14.0004 10.8 12.9004 11.8 12.8004 13.1V13.2C12.8004 14.3 13.3004 14.9 14.7004 15.4C15.1004 15.5 15.4004 15.7 15.8004 15.9C16.1004 16.1 16.3004 16.4 16.3004 16.7C16.3004 17.3 15.8004 17.8 15.2004 17.8C15.2004 17.8 15.2004 17.8 15.1004 17.8C14.4004 17.8 13.7004 17.4 13.4004 16.7L12.4004 17.7C13.0004 18.7 14.0004 19.2 15.2004 19.2C16.6004 19.3 17.8004 18.2 17.9004 16.8C17.9004 16.7 17.9004 16.6 17.9004 16.6C18.0004 15.5 17.5004 14.9 15.7004 14.2Z" fill="#231F20"/>
<path d="M18.5 15.2C18.5 17.5 20.3 19.3 22.6 19.3H22.7C23.4 19.3 24 19.1 24.6 18.8V17C24.1 17.5 23.5 17.9 22.7 17.9C21.3 17.9 20.1 16.8 20 15.4C20 15.3 20 15.3 20 15.2C20 13.7 21.1 12.5 22.5 12.5C22.5 12.5 22.5 12.5 22.6 12.5C23.3 12.5 24.1 12.8 24.5 13.4V11.5C23.9 11.2 23.3 11 22.6 11C20.4 11 18.5 12.8 18.5 15.2Z" fill="#231F20"/>
<path d="M36.9006 16.5002L34.8006 11.2002H33.1006L36.4006 19.3002H37.3006L40.7006 11.2002H39.0006L36.9006 16.5002Z" fill="#231F20"/>
<path d="M41.4004 19.1002H45.8004V17.8002H42.9004V15.7002H45.7004V14.3002H42.9004V12.6002H45.8004V11.2002H41.4004V19.1002Z" fill="#231F20"/>
<path d="M51.8998 13.5002C51.8998 12.0002 50.8998 11.2002 49.0998 11.2002H46.7998V19.1002H48.2998V15.9002H48.4998L50.5998 19.1002H52.4998L49.9998 15.8002C51.1998 15.6002 51.9998 14.7002 51.8998 13.5002ZM48.7998 14.9002H48.2998V12.5002H48.7998C49.7998 12.5002 50.2998 12.9002 50.2998 13.7002C50.2998 14.5002 49.7998 14.9002 48.7998 14.9002Z" fill="#231F20"/>
<path d="M53 11.5999C53 11.4999 52.9 11.3999 52.7 11.3999H52.5V12.0999H52.7V11.7999L52.9 12.0999H53.1L52.9 11.7999C52.9 11.7999 53 11.6999 53 11.5999ZM52.7 11.6999V11.4999C52.8 11.4999 52.8 11.4999 52.8 11.5999C52.8 11.6999 52.8 11.6999 52.7 11.6999Z" fill="#231F20"/>
<path d="M52.7006 11.1001C52.4006 11.1001 52.1006 11.4001 52.1006 11.7001C52.1006 12.0001 52.4006 12.3001 52.7006 12.3001C53.0006 12.3001 53.3006 12.0001 53.3006 11.7001C53.3006 11.4001 53.1006 11.1001 52.7006 11.1001ZM52.7006 12.2001C52.4006 12.2001 52.2006 12.0001 52.2006 11.7001C52.2006 11.4001 52.4006 11.2001 52.7006 11.2001C53.0006 11.2001 53.2006 11.4001 53.2006 11.7001C53.2006 12.0001 53.0006 12.2001 52.7006 12.2001Z" fill="#231F20"/>
<path d="M31.5896 18.6604C33.6112 17.3682 34.2025 14.682 32.9104 12.6604V12.6604C31.6183 10.6388 28.932 10.0475 26.9104 11.3396V11.3396C24.8888 12.6318 24.2975 15.3181 25.5896 17.3396V17.3396C26.8818 19.3612 29.5681 19.9525 31.5896 18.6604V18.6604Z" fill="url(#paint0_linear_686_50035)"/>
<defs>
<linearGradient id="paint0_linear_686_50035" x1="30.8702" y1="17.5365" x2="28.6869" y2="14.1182" gradientUnits="userSpaceOnUse">
<stop stop-color="#F59F00"/>
<stop offset="0.2345" stop-color="#F49A01"/>
<stop offset="0.4995" stop-color="#F28D04"/>
<stop offset="0.6196" stop-color="#F18406"/>
<stop offset="0.7552" stop-color="#EF7B09"/>
<stop offset="1" stop-color="#ED6F0D"/>
</linearGradient>
</defs>
</svg>
