<svg width="57" height="38" viewBox="0 0 57 38" fill="none" xmlns="http://www.w3.org/2000/svg">
<path d="M36.1002 6.7998H21.2002V31.1998H36.1002V6.7998Z" fill="#FF5F00"/>
<path d="M22.7006 18.9996C22.7006 14.1996 24.9006 9.69963 28.6006 6.79963C21.9006 1.49963 12.1006 2.69963 6.8006 9.39963C1.5006 16.0996 2.7006 25.8996 9.4006 31.1996C15.0006 35.5996 22.9006 35.5996 28.6006 31.1996C24.9006 28.1996 22.7006 23.6996 22.7006 18.9996Z" fill="#EB001B"/>
<path d="M52.3 28.6V28.1H52.5V28H52V28.1H52.2L52.3 28.6ZM53.3 28.6V28H53.1L52.9 28.4L52.7 28H52.5V28.6H52.6V28.1L52.8 28.5H52.9L53.1 28.1V28.6H53.3Z" fill="#F79E1B"/>
<path d="M53.7006 18.9996C53.7006 27.5996 46.8006 34.4996 38.2006 34.4996C34.7006 34.4996 31.3006 33.2996 28.6006 31.1996C35.3006 25.8996 36.5006 16.1996 31.2006 9.39963C30.4006 8.39963 29.6006 7.59963 28.6006 6.79963C35.3006 1.49963 45.1006 2.69963 50.4006 9.39963C52.6006 12.0996 53.7006 15.4996 53.7006 18.9996Z" fill="#F79E1B"/>
</svg>
