<svg width="57" height="36" viewBox="0 0 57 36" fill="none" xmlns="http://www.w3.org/2000/svg">
<path d="M57.0004 0H0.400391V36H57.0004V0Z" fill="white"/>
<path d="M56.1004 30.1001H1.40039V35.0001H56.1004V30.1001Z" fill="#FCB316"/>
<path d="M56.1004 1H1.40039V5.9H56.1004V1Z" fill="#10357F"/>
<path d="M23.3004 11.3001L17.6004 24.8001H13.9004L11.1004 14.0001C11.1004 13.5001 10.7004 13.0001 10.3004 12.8001C9.2004 12.3001 8.00039 11.9001 6.90039 11.7001L7.0004 11.3001H12.9004C13.7004 11.3001 14.4004 11.9001 14.5004 12.7001L16.0004 20.5001L19.6004 11.3001C19.6004 11.3001 23.3004 11.3001 23.3004 11.3001ZM37.7004 20.4001C37.7004 16.8001 32.8004 16.6001 32.8004 15.1001C32.8004 14.6001 33.3004 14.1001 34.3004 14.0001C35.5004 13.9001 36.7004 14.1001 37.7004 14.6001L38.3004 11.7001C37.3004 11.3001 36.1004 11.1001 35.0004 11.1001C31.6004 11.1001 29.1004 12.9001 29.1004 15.6001C29.1004 17.5001 30.8004 18.6001 32.2004 19.3001C33.6004 20.0001 34.0004 20.4001 34.0004 21.0001C34.0004 21.9001 32.9004 22.3001 31.9004 22.3001C30.7004 22.3001 29.4004 22.0001 28.3004 21.5001L27.7004 24.5001C28.9004 25.0001 30.3004 25.2001 31.6004 25.2001C35.3004 25.0001 37.7004 23.2001 37.7004 20.4001ZM46.9004 24.8001H50.1004L47.3004 11.3001H44.3004C43.6004 11.3001 43.1004 11.7001 42.8004 12.3001L37.6004 24.8001H41.3004L42.0004 22.8001H46.5004L46.9004 24.8001ZM43.0004 20.0001L44.8004 14.9001L45.9004 20.0001H43.0004ZM28.3004 11.3001L25.4004 24.8001H21.9004L24.8004 11.3001H28.3004Z" fill="#10357F"/>
</svg>
